<svg width="24" height="24" viewBox="0 0 24 24" fill="none" xmlns="http://www.w3.org/2000/svg">
<path fill-rule="evenodd" clip-rule="evenodd" d="M11.1992 5.49959V3.89961C11.1992 3.45778 11.5574 3.09961 11.9992 3.09961C12.441 3.09961 12.7992 3.45778 12.7992 3.89961V5.49959H18.9992H19.9992C20.441 5.49959 20.7992 5.85777 20.7992 6.29959C20.7992 6.74142 20.441 7.09959 19.9992 7.09959H18.9992V18.9996C18.9992 20.1042 18.1038 20.9996 16.9992 20.9996H6.99921C5.89464 20.9996 4.99921 20.1042 4.99921 18.9996V7.09959H3.99922C3.55739 7.09959 3.19922 6.74142 3.19922 6.29959C3.19922 5.85777 3.55739 5.49959 3.99922 5.49959H4.99921H11.1992ZM6.59921 7.09959H17.3992V18.9996C17.3992 19.2205 17.2201 19.3996 16.9992 19.3996H6.99921C6.7783 19.3996 6.59921 19.2205 6.59921 18.9996V7.09959ZM10.2992 9.89962C10.741 9.89962 11.0992 10.2578 11.0992 10.6996V15.4996C11.0992 15.9415 10.741 16.2996 10.2992 16.2996C9.85736 16.2996 9.49919 15.9415 9.49919 15.4996V10.6996C9.49919 10.2578 9.85736 9.89962 10.2992 9.89962ZM14.4992 10.6996C14.4992 10.2578 14.141 9.89962 13.6992 9.89962C13.2574 9.89962 12.8992 10.2578 12.8992 10.6996V15.4996C12.8992 15.9415 13.2574 16.2996 13.6992 16.2996C14.141 16.2996 14.4992 15.9415 14.4992 15.4996V10.6996Z" fill="#94949E"/>
</svg>
