<svg width="112" height="109" viewBox="0 0 112 109" fill="none" xmlns="http://www.w3.org/2000/svg">
<rect x="38.8888" width="7.77771" height="7.77771" fill="#1EEEAF"/>
<rect x="38.8888" y="101.109" width="7.77771" height="7.77771" fill="#1EEEAF"/>
<rect x="23.3318" y="7.77844" width="7.77771" height="7.77771" fill="#1EEEAF"/>
<rect x="7.77667" y="23.3336" width="7.77771" height="7.77771" fill="#1EEEAF"/>
<rect x="7.77667" y="31.1104" width="7.77771" height="7.77771" fill="#1EEEAF"/>
<rect width="7.77771" height="7.77771" transform="matrix(-1 0 0 1 85.556 7.77844)" fill="#1EEEAF"/>
<rect width="7.77771" height="7.77771" transform="matrix(-1 0 0 1 101.111 23.3336)" fill="#1EEEAF"/>
<rect width="7.77771" height="7.77771" transform="matrix(-1 0 0 1 101.111 31.1104)" fill="#1EEEAF"/>
<rect y="38.8889" width="7.77771" height="7.77771" fill="#1EEEAF"/>
<rect y="46.6655" width="7.77771" height="7.77771" fill="#1EEEAF"/>
<rect y="54.444" width="7.77771" height="7.77771" fill="#1EEEAF"/>
<rect x="7.77667" y="69.9991" width="7.77771" height="7.77771" fill="#1EEEAF"/>
<rect width="7.77771" height="7.77771" transform="matrix(-1 0 0 1 101.111 69.9991)" fill="#1EEEAF"/>
<rect width="7.77771" height="7.77771" transform="matrix(-1 0 0 1 73.1094 50.5556)" fill="#1EEEAF"/>
<rect width="7.77771" height="7.77771" transform="matrix(-1 0 0 1 80.8879 50.5556)" fill="#1EEEAF"/>
<rect width="7.77771" height="7.77771" transform="matrix(-1 0 0 1 88.6646 50.5556)" fill="#1EEEAF"/>
<rect width="7.77771" height="7.77771" transform="matrix(-1 0 0 1 96.4448 50.5556)" fill="#1EEEAF"/>
<rect width="7.77771" height="7.77771" transform="matrix(-1 0 0 1 104.222 50.5556)" fill="#1EEEAF"/>
<rect width="7.77771" height="7.77771" transform="matrix(-1 0 0 1 112 50.5556)" fill="#1EEEAF"/>
<rect width="21.7776" height="21.7776" transform="matrix(-1 0 0 1 65.3328 43.5552)" fill="#1EEEAF"/>
<rect x="23.3318" y="101.109" width="7.77771" height="7.77771" transform="rotate(-90 23.3318 101.109)" fill="#1EEEAF"/>
<rect width="7.77771" height="7.77771" transform="matrix(4.37114e-08 -1 -1 -4.37114e-08 85.556 101.109)" fill="#1EEEAF"/>
<rect y="62.2224" width="7.77771" height="7.77771" fill="#1EEEAF"/>
<rect x="7.77667" y="77.7776" width="7.77771" height="7.77771" fill="#1EEEAF"/>
<rect width="7.77771" height="7.77771" transform="matrix(-1 0 0 1 101.111 77.7776)" fill="#1EEEAF"/>
<rect x="31.1121" y="101.109" width="7.77771" height="7.77771" transform="rotate(-90 31.1121 101.109)" fill="#1EEEAF"/>
<rect x="15.5551" y="15.5551" width="7.77771" height="7.77771" fill="#1EEEAF"/>
<rect width="7.77771" height="7.77771" transform="matrix(4.37114e-08 -1 -1 -4.37114e-08 77.7758 101.109)" fill="#1EEEAF"/>
<rect x="15.5551" y="85.5542" width="7.77771" height="7.77771" fill="#1EEEAF"/>
<rect x="31.1121" y="7.77844" width="7.77771" height="7.77771" fill="#1EEEAF"/>
<rect width="7.77771" height="7.77771" transform="matrix(-1 0 0 1 93.3328 85.5542)" fill="#1EEEAF"/>
<rect width="7.77771" height="7.77771" transform="matrix(-1 0 0 1 93.3328 15.5551)" fill="#1EEEAF"/>
<rect x="46.6672" width="7.77771" height="7.77771" fill="#1EEEAF"/>
<rect x="46.6672" y="101.109" width="7.77771" height="7.77771" fill="#1EEEAF"/>
<rect width="7.77771" height="7.77771" transform="matrix(-1 0 0 1 77.7758 7.77844)" fill="#1EEEAF"/>
<rect x="54.444" width="7.77771" height="7.77771" fill="#1EEEAF"/>
<rect x="54.444" y="101.109" width="7.77771" height="7.77771" fill="#1EEEAF"/>
<rect x="62.2206" width="7.77771" height="7.77771" fill="#1EEEAF"/>
<rect x="62.2206" y="101.109" width="7.77771" height="7.77771" fill="#1EEEAF"/>
</svg>
